<?xml version="1.0" standalone="no"?>
<!DOCTYPE svg PUBLIC "-//W3C//DTD SVG 20010904//EN"
 "http://www.w3.org/TR/2001/REC-SVG-20010904/DTD/svg10.dtd">
<svg version="1.0" xmlns="http://www.w3.org/2000/svg"
 width="612.000000pt" height="612.000000pt" viewBox="0 0 612.000000 612.000000"
 preserveAspectRatio="xMidYMid meet">
<metadata>
Created by potrace 1.11, written by Peter Selinger 2001-2013
</metadata>
<g transform="translate(0.000000,612.000000) scale(0.100000,-0.100000)"
fill="#000000" stroke="none">
<path d="M50 5805 c-14 -7 -31 -24 -38 -37 -10 -18 -12 -602 -10 -2724 3
-2401 5 -2702 18 -2716 9 -8 25 -20 37 -26 16 -9 765 -12 3010 -12 2816 0
2989 1 3009 18 12 9 27 27 33 39 8 15 11 185 11 566 0 536 0 545 -21 571 -32
41 -53 48 -99 36 -77 -21 -75 -3 -75 -541 0 -263 -4 -481 -8 -485 -8 -9 -5704
-12 -5716 -4 -8 6 -9 4349 -1 4351 3 1 1289 2 2858 3 1893 1 2856 -2 2860 -9
4 -5 7 -695 7 -1532 l0 -1523 26 -25 c46 -47 114 -40 156 14 17 22 19 3961 2
3994 -6 12 -21 30 -33 39 -20 17 -193 18 -3011 17 -2524 0 -2994 -2 -3015 -14z
m3753 -184 c4 0 7 -132 7 -291 l0 -290 -1808 2 -1807 3 0 285 c0 157 2 287 6
290 6 4 3576 5 3602 1z m2117 0 c3 0 5 -132 5 -291 l0 -290 -960 2 -960 3 -1
285 c0 157 3 287 7 290 6 4 1892 5 1909 1z"/>
<path d="M4394 5426 c-107 -47 -72 -196 46 -196 36 0 87 42 95 79 10 45 -18
99 -59 116 -42 18 -43 18 -82 1z"/>
<path d="M4921 5422 c-64 -31 -75 -116 -21 -164 44 -40 98 -39 139 3 82 82
-13 212 -118 161z"/>
<path d="M5464 5430 c-12 -5 -31 -21 -44 -37 -30 -39 -23 -107 15 -140 39 -34
98 -31 136 6 16 16 30 38 30 48 1 10 2 25 3 33 2 23 -25 67 -48 79 -30 15 -68
20 -92 11z"/>
<path d="M1865 3319 c-267 -160 -609 -363 -803 -477 -173 -102 -202 -127 -202
-175 0 -58 20 -74 273 -221 18 -10 149 -88 292 -174 143 -85 275 -164 294
-174 19 -11 59 -35 88 -54 29 -19 55 -34 57 -34 3 0 46 -26 98 -57 75 -47 101
-58 136 -58 36 0 48 5 68 28 26 30 31 71 13 110 -6 13 -41 42 -77 64 -54 33
-586 349 -884 526 -60 35 -66 42 -50 52 9 7 238 143 508 304 355 211 494 299
503 317 30 67 -6 135 -75 139 -34 3 -63 -11 -239 -116z"/>
<path d="M3471 3428 c-24 -13 -64 -71 -556 -803 -158 -236 -315 -469 -347
-516 -70 -105 -76 -143 -28 -191 27 -27 36 -30 72 -25 22 3 49 14 58 24 20 20
50 65 555 818 191 286 355 528 363 537 8 9 17 37 19 61 4 36 1 48 -18 71 -28
31 -83 43 -118 24z"/>
<path d="M3984 3431 c-51 -22 -71 -104 -36 -147 9 -12 175 -115 367 -229 193
-114 418 -249 502 -299 l152 -90 -42 -27 c-24 -15 -232 -139 -463 -276 -230
-138 -440 -263 -466 -279 -72 -43 -90 -108 -44 -161 20 -23 32 -28 68 -28 38
1 104 37 618 343 316 189 585 354 598 368 13 16 22 38 22 59 0 21 -9 43 -22
59 -18 19 -362 229 -733 446 -16 10 -122 73 -235 140 -203 121 -245 138 -286
121z"/>
<path d="M2467 1403 c-2 -5 -3 -141 -3 -303 1 -273 2 -295 19 -298 19 -4 40
37 27 53 -12 15 -12 18 -1 47 6 16 6 30 1 33 -8 5 -4 50 6 66 2 4 1 10 -4 13
-15 9 -2 90 21 123 24 36 71 63 109 63 27 0 72 -22 67 -32 -2 -4 5 -14 16 -22
20 -14 21 -38 25 -326 0 -19 5 -26 20 -26 18 0 19 8 18 155 0 100 -5 168 -13
192 -8 21 -12 40 -9 43 2 3 1 4 -3 1 -3 -3 -16 4 -28 15 -48 45 -144 37 -197
-15 l-35 -35 3 45 c1 24 6 50 10 56 4 7 3 9 -2 6 -10 -6 -11 89 -1 99 9 9 -15
54 -29 54 -7 0 -14 -3 -17 -7z"/>
<path d="M1344 1365 c4 -26 16 -29 92 -27 l74 3 1 -93 c0 -51 0 -173 0 -271 0
-177 0 -178 21 -175 19 2 22 10 23 43 0 22 4 46 9 54 6 9 5 12 -2 7 -13 -8
-11 52 2 73 6 10 5 12 -2 7 -16 -10 -15 7 1 23 6 8 7 11 1 8 -7 -4 -11 9 -10
38 1 25 6 45 11 45 6 0 4 4 -3 9 -8 4 -14 12 -14 16 0 4 6 12 14 16 7 5 8 9 2
9 -14 0 -16 60 -3 76 7 8 6 14 -1 19 -14 9 -13 28 3 19 9 -5 9 -4 0 6 -10 11
-10 17 0 29 8 10 8 13 0 8 -7 -5 -10 -1 -9 10 3 15 14 18 82 18 74 1 79 2 82
23 l3 22 -189 0 c-162 0 -190 -2 -188 -15z"/>
<path d="M3094 1358 c0 -22 3 -23 82 -22 l82 1 0 -45 c1 -24 4 -47 6 -50 3 -2
1 -13 -4 -23 -6 -10 -6 -20 -1 -23 9 -6 7 -48 -3 -65 -4 -5 -2 -12 2 -15 8 -5
9 -29 2 -61 -1 -5 -2 -14 -1 -20 1 -5 2 -61 2 -123 -1 -112 0 -113 22 -110 20
3 22 8 21 61 -1 49 1 57 15 52 14 -4 14 -4 1 7 -13 11 -16 46 -16 216 l-1 203
41 -1 c105 -4 126 -1 126 20 0 19 -7 20 -188 20 l-188 0 0 -22z"/>
<path d="M3550 1361 c-5 -11 -10 -22 -10 -24 0 -8 63 -28 68 -22 3 3 0 5 -8 5
-9 0 -9 4 -2 13 15 18 15 29 0 38 -21 14 -37 10 -48 -10z"/>
<path d="M3315 1320 c3 -5 8 -10 11 -10 2 0 4 5 4 10 0 6 -5 10 -11 10 -5 0
-7 -4 -4 -10z"/>
<path d="M1764 1216 c-77 -34 -117 -108 -114 -210 2 -98 4 -115 13 -109 4 2 7
-2 7 -10 0 -7 11 -24 25 -37 13 -12 22 -28 18 -34 -3 -6 -3 -8 2 -4 4 4 16 3
27 -3 38 -21 67 -24 125 -16 59 9 103 33 103 57 0 25 -4 25 -38 0 -38 -28
-109 -36 -155 -17 -54 23 -107 118 -76 138 10 6 11 9 2 9 -7 0 -13 6 -13 14 0
11 28 14 147 15 80 1 150 4 154 6 9 6 3 58 -16 128 -2 4 -4 10 -5 15 -1 4 -2
11 -1 15 1 5 -3 6 -8 3 -5 -4 -13 -1 -18 7 -26 41 -121 59 -179 33z m91 -26
c-3 -4 3 -6 13 -3 18 4 61 -33 66 -58 2 -8 6 -22 10 -31 4 -9 6 -25 4 -35 -3
-16 -17 -18 -131 -21 -142 -3 -140 -4 -111 68 17 42 66 86 84 75 5 -3 10 -2
10 3 0 5 14 9 30 10 17 0 28 -3 25 -8z"/>
<path d="M1720 1060 c-9 -6 -10 -10 -3 -10 6 0 15 5 18 10 8 12 4 12 -15 0z"/>
<path d="M2209 1220 c-42 -12 -80 -41 -103 -79 -23 -36 -41 -88 -37 -105 1 -5
-4 -13 -11 -17 -7 -5 -8 -9 -3 -9 6 0 12 -15 13 -32 4 -56 7 -65 36 -110 18
-29 40 -49 62 -57 19 -7 32 -15 30 -19 -2 -4 19 -6 47 -5 29 1 52 2 52 3 0 1
11 3 24 6 31 6 51 22 51 41 0 11 -5 13 -17 8 -52 -22 -94 -28 -130 -19 -21 5
-37 15 -36 22 2 6 -3 9 -11 6 -15 -6 -61 60 -52 75 4 5 1 11 -5 13 -13 4 -16
69 -5 122 15 76 83 137 153 136 15 -1 45 -7 66 -14 36 -13 37 -13 37 9 0 17
-7 24 -31 29 -41 8 -97 6 -130 -4z"/>
<path d="M3840 1223 c-8 -3 -29 -19 -47 -36 l-32 -30 2 29 c2 23 -2 29 -18 29
-19 0 -20 -7 -20 -112 1 -72 -3 -113 -10 -113 -7 0 -7 -3 0 -8 14 -10 14 -105
1 -114 -7 -5 -6 -8 2 -8 9 0 12 -10 8 -34 -5 -30 -3 -33 18 -29 20 4 22 10 21
56 0 29 3 58 8 65 5 6 6 12 1 12 -5 0 -9 31 -9 70 0 38 3 70 6 70 3 0 5 11 4
25 -2 14 1 25 6 25 6 0 8 4 5 9 -7 11 19 33 28 24 4 -4 4 1 0 12 -6 15 -4 17
10 12 9 -4 15 -3 11 2 -7 13 23 21 62 17 36 -4 67 -30 78 -66 13 -39 13 -314
1 -323 -6 -4 3 -6 19 -5 24 2 30 8 29 25 0 13 4 19 10 16 8 -5 8 -2 1 8 -6 8
-10 64 -9 129 1 131 14 168 67 200 33 20 97 30 67 10 -8 -5 -10 -10 -4 -10 5
0 15 5 20 10 16 16 59 -32 60 -67 1 -15 3 -28 4 -28 2 0 3 -46 4 -102 1 -65
-2 -103 -9 -103 -7 0 -7 -3 0 -8 6 -4 11 -18 10 -32 0 -35 13 -60 28 -54 10 4
13 30 13 100 -1 53 2 98 6 101 5 2 3 13 -3 24 -7 14 -7 24 0 33 6 7 8 15 5 18
-6 6 -16 54 -18 80 0 9 -3 15 -7 12 -4 -2 -10 4 -14 15 -6 21 -61 51 -93 51
-45 0 -83 -14 -112 -41 -16 -16 -30 -34 -30 -41 0 -6 -10 4 -23 23 -12 18 -34
39 -47 46 -25 13 -83 16 -110 6z"/>
<path d="M4487 1207 c-48 -29 -72 -63 -89 -122 -19 -64 -13 -147 15 -199 11
-23 20 -45 19 -49 -1 -5 2 -6 8 -2 5 3 10 2 10 -2 0 -5 16 -17 35 -27 65 -35
225 -3 225 44 0 25 -5 25 -43 -2 -47 -34 -132 -32 -178 4 -36 27 -59 79 -59
132 l0 26 155 0 c133 0 154 2 149 15 -4 9 0 15 7 15 9 0 10 3 4 8 -11 8 -15
22 -18 63 -1 15 -4 26 -7 24 -3 -2 -11 8 -18 23 -31 68 -142 93 -215 49z m166
-48 c16 -17 26 -37 23 -45 -3 -8 -1 -14 4 -14 6 0 10 -14 10 -30 l0 -31 -130
2 c-96 1 -130 4 -130 13 0 7 3 16 8 20 4 4 7 15 8 24 1 29 16 53 29 48 7 -2
12 3 11 12 -1 10 6 16 16 16 10 -1 16 2 13 6 -7 12 24 18 70 14 29 -3 48 -13
68 -35z"/>
<path d="M3559 1218 c-1 -2 -2 -96 -3 -210 -1 -135 2 -209 9 -211 5 -2 19 -1
30 4 11 4 15 8 10 8 -6 1 -11 21 -11 45 0 28 4 42 11 38 5 -3 4 2 -4 11 -11
14 -11 17 0 17 12 0 12 2 1 9 -18 11 -19 15 -5 33 7 8 10 18 6 22 -12 12 -10
116 2 116 5 0 3 5 -5 10 -13 9 -13 10 0 10 9 0 11 3 5 8 -12 8 -13 22 -2 39 4
6 2 15 -4 18 -5 4 -8 13 -5 21 3 9 -2 14 -14 14 -11 0 -21 -1 -21 -2z"/>
<path d="M3315 1171 c-3 -5 -2 -12 3 -15 5 -3 9 1 9 9 0 17 -3 19 -12 6z"/>
</g>
</svg>
